<?xml version="1.0" standalone="no"?>
<!DOCTYPE svg PUBLIC "-//W3C//DTD SVG 20010904//EN"
 "http://www.w3.org/TR/2001/REC-SVG-20010904/DTD/svg10.dtd">
<svg version="1.0" xmlns="http://www.w3.org/2000/svg"
 width="700.000000pt" height="700.000000pt" viewBox="0 0 700.000000 700.000000"
 preserveAspectRatio="xMidYMid meet">
<metadata>
Created by potrace 1.14, written by Peter Selinger 2001-2017
</metadata>
<g transform="translate(0.000000,700.000000) scale(0.100000,-0.100000)"
fill="#000000" stroke="none">
<path d="M2819 6777 c-2 -3 -30 -7 -62 -11 -32 -3 -88 -13 -125 -22 -37 -8
-74 -17 -82 -19 -8 -2 -49 -15 -90 -30 -192 -70 -385 -191 -537 -338 l-52 -50
-43 12 c-165 46 -392 19 -545 -65 -150 -82 -271 -212 -340 -364 -81 -178 -88
-367 -23 -560 23 -67 26 -87 16 -95 -33 -26 -122 -137 -157 -196 -44 -74 -94
-203 -104 -270 -17 -112 -22 -154 -19 -183 11 -132 16 -170 34 -230 54 -191
170 -354 334 -474 l70 -50 2 -1474 c0 -810 4 -1486 8 -1503 41 -185 116 -318
243 -435 109 -99 244 -165 393 -191 57 -9 2540 -13 2615 -3 83 10 104 16 185
46 298 114 489 397 490 726 0 66 3 92 13 93 6 0 107 2 222 4 116 2 224 6 240
9 136 27 199 48 288 92 222 112 403 311 487 536 20 53 24 68 36 127 3 14 7 27
9 31 14 22 18 199 18 725 0 692 -1 719 -50 865 -115 344 -402 591 -765 661
-35 7 -159 13 -278 14 l-215 2 -3 39 c-2 29 3 45 20 64 39 42 103 151 133 225
48 119 64 213 60 349 -2 66 -5 130 -8 141 -3 11 -13 46 -21 77 -76 281 -315
520 -606 603 -50 15 -109 25 -170 30 -23 2 -42 5 -43 7 -2 1 -13 37 -27 78
-46 141 -163 348 -261 465 -238 283 -533 452 -924 530 -36 8 -359 17 -366 12z
m330 -453 c432 -79 771 -426 856 -874 12 -66 13 -285 1 -365 -18 -121 6 -188
90 -248 98 -69 255 -32 309 73 24 46 46 170 49 280 2 43 3 45 31 43 84 -6 226
-117 276 -216 68 -132 65 -293 -7 -421 -57 -101 -179 -190 -294 -213 -133 -27
-311 29 -445 142 -27 23 -65 48 -84 55 -28 11 -196 14 -915 14 -880 0 -881 0
-922 -22 -53 -27 -88 -69 -125 -150 -79 -176 -220 -260 -444 -265 -98 -3 -225
52 -303 129 -159 159 -169 423 -23 593 l30 34 120 -122 c66 -66 121 -118 124
-113 2 4 2 77 1 162 -1 85 1 163 3 174 5 16 13 18 72 13 67 -5 131 -30 240
-92 101 -57 235 -14 291 94 49 93 19 212 -69 277 -69 51 -199 112 -287 135
-85 22 -252 30 -337 16 -45 -8 -47 -7 -58 20 -7 15 -12 62 -12 103 0 59 5 87
25 130 86 188 315 252 485 137 57 -39 139 -155 148 -210 9 -51 60 -115 115
-144 37 -19 56 -23 105 -20 149 10 231 122 204 275 -10 54 -88 215 -131 269
l-29 37 38 34 c164 144 370 230 613 254 53 6 179 -3 259 -18z m700 -2218 c214
-141 471 -196 702 -151 33 6 37 4 40 -17 2 -12 3 -696 3 -1518 l-2 -1495 -22
-58 c-26 -69 -100 -149 -163 -177 -23 -10 -67 -23 -97 -27 -70 -11 -2473 -9
-2520 2 -96 21 -181 91 -228 185 l-27 55 -3 1408 -2 1407 52 1 c29 0 62 2 73
5 11 2 40 6 65 10 102 14 260 79 359 147 65 44 160 141 208 212 l41 60 723 0
724 -1 74 -48z m1681 -416 c130 -44 255 -151 315 -269 59 -118 58 -102 60
-771 2 -681 1 -694 -59 -815 -46 -91 -101 -153 -184 -208 -118 -79 -164 -90
-414 -95 l-218 -4 0 1096 0 1096 218 -4 c193 -3 224 -6 282 -26z"/>
<path d="M2090 3693 c-50 -25 -91 -71 -108 -122 -9 -25 -12 -326 -12 -1170 0
-1281 -6 -1180 78 -1252 50 -43 93 -57 156 -53 79 6 141 47 179 119 l22 40 0
1150 0 1150 -22 42 c-30 55 -86 99 -142 113 -61 14 -97 10 -151 -17z"/>
<path d="M2988 3705 c-56 -18 -118 -84 -134 -141 -6 -26 -10 -418 -9 -1175 l0
-1136 30 -49 c63 -100 172 -133 287 -86 36 15 77 59 100 110 19 43 20 68 20
1172 0 857 -3 1137 -13 1168 -13 45 -62 103 -107 126 -44 23 -120 28 -174 11z"/>
<path d="M3876 3710 c-69 -22 -138 -95 -152 -162 -3 -13 -5 -530 -5 -1150 0
-1107 0 -1128 20 -1170 26 -57 50 -83 98 -108 117 -61 264 -2 306 123 11 35
13 233 12 1177 l-1 1135 -22 41 c-23 45 -71 90 -111 106 -38 14 -112 19 -145
8z"/>
</g>
</svg>
